HIERARCHY
ROOT Hips
{
 OFFSET 0.000000 0.000000 0.000000
 CHANNELS 6 Xposition Yposition Zposition Yrotation Xrotation Zrotation
 JOINT Chest
 {
  OFFSET 0.000000 14.634200 -0.016200
  CHANNELS 3 Yrotation Xrotation Zrotation
  JOINT Chest2
  {
   OFFSET 0.000000 8.932900 0.033000
   CHANNELS 3 Yrotation Xrotation Zrotation
   JOINT Chest3
   {
    OFFSET 0.000000 8.892300 0.000000
    CHANNELS 3 Yrotation Xrotation Zrotation
    JOINT Chest4
    {
     OFFSET 0.000000 8.883200 0.000000
     CHANNELS 3 Yrotation Xrotation Zrotation
     JOINT Neck
     {
      OFFSET 0.000000 13.173600 0.000000
      CHANNELS 3 Yrotation Xrotation Zrotation
      JOINT Head
      {
       OFFSET 0.000000 8.324600 0.069800
       CHANNELS 3 Yrotation Xrotation Zrotation
       End Site
       {
        OFFSET 0.000000 15.692400 0.036900
       }
      }
     }
     JOINT RightCollar
     {
      OFFSET -2.619200 8.772200 0.000000
      CHANNELS 3 Yrotation Xrotation Zrotation
      JOINT RightShoulder
      {
       OFFSET -12.922000 0.000000 0.000000
       CHANNELS 3 Yrotation Xrotation Zrotation
       JOINT RightElbow
       {
        OFFSET 0.000000 -27.880900 0.000000
        CHANNELS 3 Yrotation Xrotation Zrotation
        JOINT RightWrist
        {
         OFFSET 0.000000 -22.758700 0.008200
         CHANNELS 3 Yrotation Xrotation Zrotation
         End Site
         {
          OFFSET 0.000000 -16.965000 0.000000
         }
        }
       }
      }
     }
     JOINT LeftCollar
     {
      OFFSET 2.619200 8.772200 0.000000
      CHANNELS 3 Yrotation Xrotation Zrotation
      JOINT LeftShoulder
      {
       OFFSET 12.922000 0.000000 0.000000
       CHANNELS 3 Yrotation Xrotation Zrotation
       JOINT LeftElbow
       {
        OFFSET 0.000000 -27.880900 0.000000
        CHANNELS 3 Yrotation Xrotation Zrotation
        JOINT LeftWrist
        {
         OFFSET 0.000000 -22.758700 0.008200
         CHANNELS 3 Yrotation Xrotation Zrotation
         End Site
         {
          OFFSET 0.000000 -16.965000 0.000000
         }
        }
       }
      }
     }
    }
   }
  }
 }
 JOINT RightHip
 {
  OFFSET -12.026800 0.080100 0.008100
  CHANNELS 3 Yrotation Xrotation Zrotation
  JOINT RightKnee
  {
   OFFSET 0.000000 -42.600800 -0.000200
   CHANNELS 3 Yrotation Xrotation Zrotation
   JOINT RightAnkle
   {
    OFFSET 0.000000 -38.219300 0.054300
    CHANNELS 3 Yrotation Xrotation Zrotation
    JOINT RightToe
    {
     OFFSET 0.000000 -9.685800 15.804700
     CHANNELS 3 Yrotation Xrotation Zrotation
     End Site
     {
      OFFSET 0.000000 -1.422300 5.761700
     }
    }
   }
  }
 }
 JOINT LeftHip
 {
  OFFSET 12.026800 0.080100 0.008100
  CHANNELS 3 Yrotation Xrotation Zrotation
  JOINT LeftKnee
  {
   OFFSET 0.000000 -42.600800 -0.000200
   CHANNELS 3 Yrotation Xrotation Zrotation
   JOINT LeftAnkle
   {
    OFFSET 0.000000 -38.219300 0.054300
    CHANNELS 3 Yrotation Xrotation Zrotation
    JOINT LeftToe
    {
     OFFSET 0.000000 -9.685800 15.804700
     CHANNELS 3 Yrotation Xrotation Zrotation
     End Site
     {
      OFFSET 0.000000 -1.422300 5.761700
     }
    }
   }
  }
 }
}
MOTION
Frames: 5
Frame Time: 0.008333
-9.129306 129.096730 15.578574 176.934199 -18.844683 1.213656 -0.518070 23.027392 3.973343 -0.175021 3.370699 0.586167 -0.265787 5.441406 0.942333 -0.545737 19.324055 3.325983 -0.989422 9.117030 -0.118079 -1.032806 -16.047136 0.104973 8.633722 -6.885053 -8.459442 33.565722 -38.817786 -27.829458 34.396921 -18.290618 -9.984526 12.950924 20.240158 -28.935007 -4.761767 -6.097717 0.901554 -10.900653 -35.456204 5.400447 -1.912765 -44.565042 -3.981643 -4.085386 -0.019348 22.345007 -2.012276 -53.564672 5.445843 -77.004074 80.877131 -86.899603 -5.574152 -12.850688 13.488920 0.022147 0.001210 0.013573 14.840002 -50.797754 -24.906022 56.821867 73.508123 68.136929 6.879605 -3.405949 -5.351536 -0.003775 0.026768 -0.002314
-9.144534 129.124380 15.609877 176.925976 -19.116074 1.223670 -0.582408 22.997269 3.890185 -0.178518 3.350524 0.580640 -0.271756 5.410683 0.933528 -0.573883 19.279252 3.302037 -0.976473 9.123607 -0.118077 -1.018824 -16.040125 0.101857 8.649347 -6.902769 -8.419807 33.299197 -38.804296 -27.549917 34.313539 -18.106795 -9.737743 12.602543 19.583726 -29.117015 -4.789849 -6.090174 0.888572 -10.921554 -35.457604 5.435976 -2.526870 -44.220441 -3.363074 -4.163020 -0.037009 21.973457 -2.134952 -53.308695 5.499529 -76.869634 80.909759 -86.842189 -5.577266 -12.814081 13.481645 0.022583 0.003834 0.013840 14.801600 -50.550770 -24.825148 56.767519 73.437440 68.057960 6.850758 -3.294814 -5.305788 0.003807 0.066508 0.002333
-9.150549 129.148433 15.650056 176.918211 -19.348325 1.192706 -0.622696 22.925281 3.851531 -0.182024 3.329760 0.574832 -0.277763 5.379052 0.924316 -0.602489 19.233034 3.276640 -0.966272 9.138814 -0.109906 -1.009489 -16.024050 0.108112 8.664104 -6.915195 -8.372921 33.022115 -38.780863 -27.266561 34.184964 -17.956260 -9.475630 12.266937 18.917113 -29.292764 -4.818140 -6.081778 0.875073 -10.958487 -35.455391 5.470261 -3.179183 -43.864733 -2.717466 -4.249060 -0.010560 21.569383 -2.292112 -53.085872 5.609117 -76.514065 80.905406 -86.522901 -5.542376 -12.753240 13.431648 0.028851 0.005399 0.017682 14.748246 -50.362205 -24.712646 56.745588 73.376840 68.019183 6.806888 -3.191553 -5.244132 -0.009699 0.063624 -0.005949
-9.144051 129.170708 15.693718 176.872791 -19.563738 1.123639 -0.600733 22.838568 3.868218 -0.185472 3.308885 0.568847 -0.283689 5.347247 0.914926 -0.631136 19.186358 3.250386 -0.958422 9.159441 -0.092824 -1.004743 -16.002175 0.124547 8.674210 -6.925692 -8.325603 32.759708 -38.747106 -27.005993 34.014435 -17.831525 -9.184863 11.933375 18.263166 -29.469653 -4.843120 -6.078227 0.855720 -11.009199 -35.455077 5.504646 -3.843539 -43.488611 -2.070612 -4.327432 0.052858 21.124092 -2.485887 -52.877682 5.804526 -75.917848 80.840874 -85.933214 -5.451861 -12.641803 13.333149 0.048510 -0.001627 0.029729 14.675189 -50.202324 -24.524374 56.760019 73.372623 68.040207 6.785050 -3.148169 -5.220854 -0.010649 0.067749 -0.006530
-9.145178 129.192242 15.738099 176.887433 -19.771765 1.064454 -0.643692 22.746230 3.853384 -0.188567 3.287198 0.562686 -0.289047 5.314222 0.905248 -0.658307 19.137673 3.223579 -0.952549 9.185263 -0.066897 -1.004204 -15.974711 0.150919 8.674735 -6.930735 -8.279846 32.519019 -38.706673 -26.779320 33.799634 -17.718645 -8.864207 11.584247 17.627808 -29.663345 -4.865153 -6.078368 0.829479 -11.067094 -35.462285 5.538214 -4.494491 -43.087375 -1.453050 -4.397597 0.155883 20.644380 -2.698090 -52.677196 5.952453 -75.482860 80.792729 -85.522385 -5.362776 -12.561001 13.270908 0.031830 -0.001950 0.019507 14.608298 -50.063404 -24.397989 56.776269 73.332465 68.049308 6.710324 -3.023873 -5.169991 -0.010550 0.021254 -0.006467
